<svg width="85" height="23" viewBox="0 0 85 23" fill="none" xmlns="http://www.w3.org/2000/svg">
<path d="M65.3926 10.2656C63.7324 10.2656 62.7168 9.23047 62.7168 7.54102C62.7168 5.90039 63.7422 4.79688 65.334 4.79688C66.8184 4.79688 67.8926 5.74414 67.8926 7.50195V7.92188H64.3379V7.95117C64.3379 8.63477 64.7578 9.07422 65.4219 9.07422C65.8711 9.07422 66.2031 8.87891 66.3398 8.56641H67.873C67.6777 9.60156 66.7695 10.2656 65.3926 10.2656ZM64.3379 6.95508H66.3594C66.3496 6.38867 65.9395 5.98828 65.373 5.98828C64.7871 5.98828 64.3623 6.40332 64.3379 6.95508Z" fill="#4D31E9"/>
<path d="M61.8672 3.09766V10.168H60.2168V3.09766H61.8672Z" fill="#4D31E9"/>
<path d="M54.0449 10.168V3.09766H55.6855V5.77344H55.7246C55.9297 5.29492 56.3789 4.79688 57.2285 4.79688C58.3418 4.79688 59.3477 5.65625 59.3477 7.52148C59.3477 9.31836 58.4004 10.2461 57.2188 10.2461C56.4082 10.2461 55.9395 9.78711 55.7246 9.30859H55.6758V10.168H54.0449ZM55.6562 7.51172C55.6562 8.39062 56.0273 8.95703 56.6621 8.95703C57.2969 8.95703 57.6582 8.39062 57.6582 7.51172C57.6582 6.65234 57.3066 6.08594 56.6621 6.08594C56.0176 6.08594 55.6562 6.63281 55.6562 7.51172Z" fill="#4D31E9"/>
<path d="M48.1465 8.69336C48.1465 7.52148 49.0547 7.10156 50.1094 7.0332C50.4902 7.00879 51.1543 6.98438 51.3789 6.97461V6.54492C51.3789 6.17383 51.1055 5.96875 50.6562 5.96875C50.2168 5.96875 49.9434 6.1543 49.875 6.50586H48.3418C48.4102 5.56836 49.2109 4.79688 50.6953 4.79688C52.0039 4.79688 53.0293 5.42188 53.0293 6.56445V10.168H51.4766V9.42578H51.4375C51.1445 9.96289 50.6367 10.2656 49.8945 10.2656C48.8789 10.2656 48.1465 9.74805 48.1465 8.69336ZM49.709 8.625C49.709 8.98633 49.9922 9.17188 50.3926 9.17188C50.9492 9.17188 51.3984 8.81055 51.3887 8.2832V7.94141C51.1885 7.95117 50.627 7.97559 50.3828 8C49.9727 8.04883 49.709 8.27344 49.709 8.625Z" fill="#4D31E9"/>
<path d="M47.541 4.86523V6.07617H46.5742V8.50781C46.5742 8.83984 46.7402 8.9375 47.0234 8.94727C47.1602 8.95703 47.4238 8.9375 47.6094 8.92773V10.1875C47.4531 10.207 47.1797 10.2461 46.7891 10.2461C45.627 10.2461 44.9238 9.76758 44.9336 8.69336V6.07617H44.2207V4.86523H44.9336V3.5957H46.5742V4.86523H47.541Z" fill="#4D31E9"/>
<path d="M42.0332 5.19727C41.9941 4.67969 41.6133 4.37695 40.9297 4.37695C40.2559 4.37695 39.9141 4.66992 39.9043 5.07031C39.8945 5.50977 40.3242 5.72461 40.959 5.86133L41.5742 6.00781C42.9316 6.31055 43.7227 6.98438 43.7324 8.11719C43.7227 9.45508 42.6875 10.2656 40.9297 10.2656C39.1719 10.2656 38.0293 9.46484 38 7.84375H39.6016C39.6406 8.52734 40.1484 8.87891 40.9102 8.87891C41.6133 8.87891 42.0332 8.56641 42.043 8.11719C42.0332 7.70703 41.6719 7.49219 40.8906 7.31641L40.1484 7.14062C38.9277 6.85742 38.1855 6.25195 38.1855 5.1875C38.1758 3.87891 39.3379 3 40.9395 3C42.5703 3 43.6152 3.88867 43.6348 5.19727H42.0332Z" fill="#4D31E9"/>
<path d="M30.8537 0C32.0929 0 33.0976 1.00463 33.0976 2.2439V3.37571C32.9006 3.22291 32.6845 3.06768 32.4478 2.9117C31.6651 2.36561 30.6275 2.09272 29.3351 2.0927C28.2975 2.0927 27.287 2.50231 26.3039 3.32148C25.321 4.14063 24.5109 5.27823 23.8738 6.73445C23.2549 8.19075 22.9452 9.82919 22.9452 11.6496C22.9452 13.4881 23.2732 15.172 23.9286 16.7011C24.5839 18.2302 25.4485 19.4406 26.5225 20.3326C27.6147 21.2064 28.7523 21.6435 29.9355 21.6436C31.229 21.6436 32.2816 21.3821 33.0948 20.8618C33.0396 22.052 32.0575 23 30.8537 23H2.2439C1.26079 23 0.426086 22.3675 0.122713 21.4874C0.966881 21.7549 2.06601 21.8895 3.42064 21.8896C5.73246 21.8896 7.54387 21.4523 8.85454 20.5786C10.1652 19.7049 10.8206 18.3943 10.8207 16.6468C10.8207 15.0086 10.4386 13.5975 9.67409 12.4143C8.92773 11.2311 8.06259 10.4297 7.07958 10.011C6.11553 9.59264 5.58782 9.36502 5.49636 9.32841C4.53166 8.92797 3.75771 8.50963 3.17521 8.07279C2.59269 7.6359 2.30142 7.02581 2.30142 6.24304C2.30143 5.44212 2.46519 4.93252 2.79283 4.71406C3.1205 4.47741 3.53929 4.35907 4.04899 4.35907C4.68606 4.35909 5.35033 4.58664 6.04199 5.04166C6.73374 5.49675 7.44379 6.04308 8.17195 6.68021C8.29936 6.77122 8.42692 6.8804 8.55433 7.00781C8.69959 7.11675 8.79059 7.17137 8.82715 7.17161C8.91809 7.17161 8.98192 7.15318 9.01834 7.11683C9.07292 7.08044 9.12756 7.02579 9.18214 6.95303C9.25496 6.86201 9.31872 6.77987 9.37333 6.70706C9.50076 6.56142 9.66505 6.33391 9.86528 6.02446C10.0836 5.69692 10.2383 5.46927 10.3293 5.34187C10.3475 5.30547 10.3746 5.25079 10.4109 5.17807C10.4655 5.08705 10.4931 5.0141 10.4931 4.95948C10.493 4.86862 10.4567 4.78677 10.3841 4.71406C9.76518 4.09517 8.89125 3.44879 7.76272 2.7753C6.65229 2.08356 5.23216 1.73772 3.50281 1.73771C2.79286 1.73771 1.95528 1.98358 0.990473 2.47509C0.643228 2.6554 0.31299 2.86128 0 3.09304V2.2439C3.25276e-07 1.00463 1.00463 2.25883e-09 2.2439 0H30.8537ZM23.6941 1.68293C22.9113 1.68293 22.1467 1.69211 21.4003 1.71032L16.649 1.7651L10.8333 1.79194C10.6877 1.79194 10.5601 1.78329 10.4509 1.7651C10.3417 1.7469 10.2504 1.73771 10.1775 1.73771C10.0685 1.73774 9.9867 1.76484 9.93212 1.81934C9.89571 1.85574 9.87733 1.94707 9.87733 2.0927L9.84994 2.69312C9.84994 2.98438 9.9229 3.13029 10.0685 3.13029L12.3349 3.0755L12.8263 3.1029C12.8809 3.55796 12.9085 4.23142 12.9085 5.12329C12.9085 5.92414 12.8901 6.56138 12.8537 7.03466C12.7809 7.94484 12.7171 9.30122 12.6625 11.1034C12.6261 12.9055 12.6077 14.5986 12.6077 16.1823C12.6077 17.3655 12.6261 18.1939 12.6625 18.6672C12.6625 18.9221 12.6441 19.2864 12.6077 19.7596C12.5713 20.1234 12.5535 20.369 12.5535 20.4964C12.5535 20.8604 12.6443 21.0426 12.8263 21.0426L14.5191 21.07C17.4135 21.1246 18.9066 21.1522 18.9976 21.1522L20.199 21.179C20.654 21.179 20.9729 21.1244 21.1549 21.0152C21.3367 20.9059 21.4185 20.6691 21.4003 20.3052C21.4003 20.1227 21.3457 19.3037 21.2365 17.8482C21.2183 17.557 21.1637 16.856 21.0727 15.7457C20.9999 14.617 20.9637 13.6881 20.9637 12.96L20.9906 8.15442L21.0454 3.21191H21.1549C21.7373 3.23011 22.2287 3.23011 22.6291 3.21191C23.0477 3.19372 23.3298 3.18453 23.4755 3.18452C23.7121 3.18452 23.8851 3.13911 23.9943 3.04811C24.1035 2.95709 24.1489 2.79336 24.1307 2.55671V2.22911C24.1489 2.06529 24.1311 1.93775 24.0765 1.84673C24.0401 1.75571 23.9125 1.70113 23.6941 1.68293ZM0 11.6315C0.457447 11.9415 0.978518 12.2575 1.56405 12.5781C1.8553 12.7238 2.16496 12.9059 2.49262 13.1243C4.4767 14.5442 5.46896 15.8822 5.46896 17.1382C5.46893 17.8663 5.21386 18.3668 4.7042 18.6398C4.19449 18.8947 3.59359 19.0222 2.90184 19.0222C1.84741 19.0222 0.880742 18.7004 0 18.0597V11.6315ZM33.0976 16.7778L32.3657 16.3735C32.2383 16.3007 32.129 16.2645 32.0381 16.2645C31.9653 16.2645 31.8836 16.3099 31.7926 16.4009C31.7199 16.4918 31.6652 16.5556 31.6288 16.5921C31.374 16.8469 31.0735 17.0928 30.7277 17.3294C30.3819 17.5478 30.0451 17.657 29.7175 17.657C29.3534 17.657 28.9162 17.5019 28.4065 17.1925C27.9151 16.883 27.4691 16.3371 27.0687 15.5545C26.6864 14.7535 26.4951 13.6792 26.4951 12.3322C26.4951 10.9488 26.6498 9.8203 26.9592 8.94657C27.2686 8.05459 27.642 7.41694 28.0789 7.03466C28.5339 6.65248 28.9891 6.46164 29.4441 6.46163C29.7354 6.46163 29.9812 6.55242 30.1815 6.73445C30.3999 6.89828 30.7004 7.18954 31.0827 7.60823C31.2464 7.7902 31.3919 7.88154 31.5193 7.8816C31.6467 7.8816 31.7743 7.82695 31.9017 7.7178C32.029 7.59041 32.1837 7.40816 32.3657 7.17161C32.5493 6.92365 32.7933 6.65487 33.0976 6.36521V16.7778Z" fill="url(#paint0_linear_205_78)"/>
<path d="M81.6504 20.1777C80.3711 20.1777 79.4336 19.1426 79.4336 17.4336C79.4336 15.7051 80.3809 14.6992 81.6602 14.6992C82.6465 14.6992 83.0078 15.2949 83.1934 15.627H83.2422V13H84.2871V20.0703H83.2715V19.2402H83.1934C82.998 19.5918 82.6172 20.1777 81.6504 20.1777ZM81.8848 19.2891C82.7734 19.2891 83.2715 18.5273 83.2715 17.4141C83.2715 16.3105 82.7832 15.5879 81.8848 15.5879C80.957 15.5879 80.498 16.3691 80.498 17.4141C80.498 18.4785 80.9766 19.2891 81.8848 19.2891Z" fill="#8571F4"/>
<path d="M76.2109 20.0703V14.7676H77.2168V15.6074H77.2754C77.4707 15.041 77.998 14.6895 78.623 14.6895C78.75 14.6895 78.9551 14.6992 79.0625 14.709V15.7051C78.9746 15.6855 78.7305 15.6465 78.5156 15.6465C77.793 15.6465 77.2559 16.1445 77.2559 16.8379V20.0703H76.2109Z" fill="#8571F4"/>
<path d="M70.5371 18.5762C70.5371 17.3652 71.5625 17.0527 72.5195 16.9844C72.8711 16.96 73.667 16.916 73.916 16.9062L73.9062 16.4863C73.9062 15.8906 73.5449 15.5391 72.832 15.5391C72.2168 15.5391 71.8457 15.8223 71.7383 16.2129H70.7031C70.8008 15.334 71.6211 14.6992 72.8711 14.6992C73.7109 14.6992 74.9512 15.0117 74.9512 16.5449V20.0703H73.9355V19.3477H73.8965C73.6914 19.748 73.2031 20.1875 72.3242 20.1875C71.3184 20.1875 70.5371 19.6113 70.5371 18.5762ZM71.5527 18.5859C71.5527 19.0938 71.9727 19.3574 72.5586 19.3574C73.4082 19.3574 73.916 18.791 73.916 18.1562V17.668L72.666 17.7559C71.9824 17.8047 71.5527 18.0586 71.5527 18.5859Z" fill="#8571F4"/>
<path d="M67.6172 20.1777C66.0742 20.1777 65.1367 19.0352 65.1367 17.4434C65.1367 15.8223 66.1035 14.6992 67.5977 14.6992C68.8086 14.6992 69.6875 15.4121 69.7949 16.4863H68.7793C68.6719 15.9883 68.2715 15.5684 67.6172 15.5684C66.7578 15.5684 66.1816 16.2812 66.1816 17.4141C66.1816 18.5762 66.748 19.2891 67.6172 19.2891C68.2031 19.2891 68.6523 18.9668 68.7793 18.3906H69.7949C69.6777 19.416 68.8672 20.1777 67.6172 20.1777Z" fill="#8571F4"/>
<path d="M62.5898 13.168V20.2383H61.5449V13.168H62.5898Z" fill="#8571F4"/>
<path d="M58.2246 20.3457C56.6621 20.3457 55.7051 19.2715 55.7051 17.6211C55.7051 15.9902 56.6816 14.8672 58.1562 14.8672C59.3672 14.8672 60.5098 15.6191 60.5098 17.5332V17.9043H56.7402C56.7695 18.9102 57.3604 19.4863 58.2344 19.4863C58.8301 19.4863 59.2109 19.2324 59.3867 18.9102H60.4414C60.207 19.7695 59.3867 20.3457 58.2246 20.3457ZM56.75 17.123H59.4844C59.4844 16.3125 58.9668 15.7266 58.166 15.7266C57.3311 15.7266 56.7891 16.3711 56.75 17.123Z" fill="#8571F4"/>
<path d="M55.2754 14.9355L53.3516 20.2383H52.2285L50.3047 14.9355H51.4277L52.7656 19.0078H52.8145L54.1523 14.9355H55.2754Z" fill="#8571F4"/>
<path d="M45.2461 18.7441C45.2461 17.5332 46.2715 17.2207 47.2285 17.1523C47.5801 17.1279 48.376 17.084 48.625 17.0742L48.6152 16.6543C48.6152 16.0586 48.2539 15.707 47.541 15.707C46.9258 15.707 46.5547 15.9902 46.4473 16.3809H45.4121C45.5098 15.502 46.3301 14.8672 47.5801 14.8672C48.4199 14.8672 49.6602 15.1797 49.6602 16.7129V20.2383H48.6445V19.5156H48.6055C48.4004 19.916 47.9121 20.3555 47.0332 20.3555C46.0273 20.3555 45.2461 19.7793 45.2461 18.7441ZM46.2617 18.7539C46.2617 19.2617 46.6816 19.5254 47.2676 19.5254C48.1172 19.5254 48.625 18.959 48.625 18.3242V17.8359L47.375 17.9238C46.6914 17.9727 46.2617 18.2266 46.2617 18.7539Z" fill="#8571F4"/>
<path d="M41.916 20.2383V14.9355H42.9219V15.7754H42.9805C43.1758 15.209 43.7031 14.8574 44.3281 14.8574C44.4551 14.8574 44.6602 14.8672 44.7676 14.877V15.873C44.6797 15.8535 44.4355 15.8145 44.2207 15.8145C43.498 15.8145 42.9609 16.3125 42.9609 17.0059V20.2383H41.916Z" fill="#8571F4"/>
<path d="M40.9004 14.9355V15.7656H39.8164V18.6758C39.8164 19.2715 40.1191 19.3789 40.4512 19.3887C40.5977 19.3887 40.832 19.3691 40.9785 19.3594V20.2676C40.832 20.2871 40.6074 20.3066 40.3242 20.3066C39.5039 20.3066 38.7715 19.8574 38.7812 18.8906V15.7656H38V14.9355H38.7812V13.666H39.8164V14.9355H40.9004Z" fill="#8571F4"/>
<defs>
<linearGradient id="paint0_linear_205_78" x1="1" y1="1" x2="32" y2="1" gradientUnits="userSpaceOnUse">
<stop stop-color="#8571F4"/>
<stop offset="1" stop-color="#4D31E9"/>
</linearGradient>
</defs>
</svg>
