<svg width="80" height="36" viewBox="0 0 80 36" fill="none" xmlns="http://www.w3.org/2000/svg">
<path d="M76.6406 35.1074C75.3613 35.1074 74.4238 34.0723 74.4238 32.3633C74.4238 30.6348 75.3711 29.6289 76.6504 29.6289C77.6367 29.6289 77.998 30.2246 78.1836 30.5566H78.2324V27.9297H79.2773V35H78.2617V34.1699H78.1836C77.9883 34.5215 77.6074 35.1074 76.6406 35.1074ZM76.875 34.2188C77.7637 34.2188 78.2617 33.457 78.2617 32.3438C78.2617 31.2402 77.7734 30.5176 76.875 30.5176C75.9473 30.5176 75.4883 31.2988 75.4883 32.3438C75.4883 33.4082 75.9668 34.2188 76.875 34.2188Z" fill="#8571F4"/>
<path d="M71.2012 35V29.6973H72.207V30.5371H72.2656C72.4609 29.9707 72.9883 29.6191 73.6133 29.6191C73.7402 29.6191 73.9453 29.6289 74.0527 29.6387V30.6348C73.9648 30.6152 73.7207 30.5762 73.5059 30.5762C72.7832 30.5762 72.2461 31.0742 72.2461 31.7676V35H71.2012Z" fill="#8571F4"/>
<path d="M65.5273 33.5059C65.5273 32.2949 66.5527 31.9824 67.5098 31.9141C67.8613 31.8896 68.6572 31.8457 68.9062 31.8359L68.8965 31.416C68.8965 30.8203 68.5352 30.4688 67.8223 30.4688C67.207 30.4688 66.8359 30.752 66.7285 31.1426H65.6934C65.791 30.2637 66.6113 29.6289 67.8613 29.6289C68.7012 29.6289 69.9414 29.9414 69.9414 31.4746V35H68.9258V34.2773H68.8867C68.6816 34.6777 68.1934 35.1172 67.3145 35.1172C66.3086 35.1172 65.5273 34.541 65.5273 33.5059ZM66.543 33.5156C66.543 34.0234 66.9629 34.2871 67.5488 34.2871C68.3984 34.2871 68.9062 33.7207 68.9062 33.0859V32.5977L67.6562 32.6855C66.9727 32.7344 66.543 32.9883 66.543 33.5156Z" fill="#8571F4"/>
<path d="M62.6074 35.1074C61.0645 35.1074 60.127 33.9648 60.127 32.373C60.127 30.752 61.0938 29.6289 62.5879 29.6289C63.7988 29.6289 64.6777 30.3418 64.7852 31.416H63.7695C63.6621 30.918 63.2617 30.498 62.6074 30.498C61.748 30.498 61.1719 31.2109 61.1719 32.3438C61.1719 33.5059 61.7383 34.2188 62.6074 34.2188C63.1934 34.2188 63.6426 33.8965 63.7695 33.3203H64.7852C64.668 34.3457 63.8574 35.1074 62.6074 35.1074Z" fill="#8571F4"/>
<path d="M27.3926 35.2656C25.7324 35.2656 24.7168 34.2305 24.7168 32.541C24.7168 30.9004 25.7422 29.7969 27.334 29.7969C28.8184 29.7969 29.8926 30.7441 29.8926 32.502V32.9219H26.3379V32.9512C26.3379 33.6348 26.7578 34.0742 27.4219 34.0742C27.8711 34.0742 28.2031 33.8789 28.3398 33.5664H29.873C29.6777 34.6016 28.7695 35.2656 27.3926 35.2656ZM26.3379 31.9551H28.3594C28.3496 31.3887 27.9395 30.9883 27.373 30.9883C26.7871 30.9883 26.3623 31.4033 26.3379 31.9551Z" fill="#4D31E9"/>
<path d="M23.8672 28.0977V35.168H22.2168V28.0977H23.8672Z" fill="#4D31E9"/>
<path d="M16.0449 35.168V28.0977H17.6855V30.7734H17.7246C17.9297 30.2949 18.3789 29.7969 19.2285 29.7969C20.3418 29.7969 21.3477 30.6562 21.3477 32.5215C21.3477 34.3184 20.4004 35.2461 19.2188 35.2461C18.4082 35.2461 17.9395 34.7871 17.7246 34.3086H17.6758V35.168H16.0449ZM17.6562 32.5117C17.6562 33.3906 18.0273 33.957 18.6621 33.957C19.2969 33.957 19.6582 33.3906 19.6582 32.5117C19.6582 31.6523 19.3066 31.0859 18.6621 31.0859C18.0176 31.0859 17.6562 31.6328 17.6562 32.5117Z" fill="#4D31E9"/>
<path d="M10.1465 33.6934C10.1465 32.5215 11.0547 32.1016 12.1094 32.0332C12.4902 32.0088 13.1543 31.9844 13.3789 31.9746V31.5449C13.3789 31.1738 13.1055 30.9688 12.6562 30.9688C12.2168 30.9688 11.9434 31.1543 11.875 31.5059H10.3418C10.4102 30.5684 11.2109 29.7969 12.6953 29.7969C14.0039 29.7969 15.0293 30.4219 15.0293 31.5645V35.168H13.4766V34.4258H13.4375C13.1445 34.9629 12.6367 35.2656 11.8945 35.2656C10.8789 35.2656 10.1465 34.748 10.1465 33.6934ZM11.709 33.625C11.709 33.9863 11.9922 34.1719 12.3926 34.1719C12.9492 34.1719 13.3984 33.8105 13.3887 33.2832V32.9414C13.1885 32.9512 12.627 32.9756 12.3828 33C11.9727 33.0488 11.709 33.2734 11.709 33.625Z" fill="#4D31E9"/>
<path d="M9.54102 29.8652V31.0762H8.57422V33.5078C8.57422 33.8398 8.74023 33.9375 9.02344 33.9473C9.16016 33.957 9.42383 33.9375 9.60938 33.9277V35.1875C9.45312 35.207 9.17969 35.2461 8.78906 35.2461C7.62695 35.2461 6.92383 34.7676 6.93359 33.6934V31.0762H6.2207V29.8652H6.93359V28.5957H8.57422V29.8652H9.54102Z" fill="#4D31E9"/>
<path d="M4.0332 30.1973C3.99414 29.6797 3.61328 29.377 2.92969 29.377C2.25586 29.377 1.91406 29.6699 1.9043 30.0703C1.89453 30.5098 2.32422 30.7246 2.95898 30.8613L3.57422 31.0078C4.93164 31.3105 5.72266 31.9844 5.73242 33.1172C5.72266 34.4551 4.6875 35.2656 2.92969 35.2656C1.17188 35.2656 0.0292969 34.4648 0 32.8438H1.60156C1.64062 33.5273 2.14844 33.8789 2.91016 33.8789C3.61328 33.8789 4.0332 33.5664 4.04297 33.1172C4.0332 32.707 3.67188 32.4922 2.89062 32.3164L2.14844 32.1406C0.927734 31.8574 0.185547 31.252 0.185547 30.1875C0.175781 28.8789 1.33789 28 2.93945 28C4.57031 28 5.61523 28.8887 5.63477 30.1973H4.0332Z" fill="#4D31E9"/>
<path d="M57.5801 28.0977V35.168H56.5352V28.0977H57.5801Z" fill="#8571F4"/>
<path d="M53.2148 35.2754C51.6523 35.2754 50.6953 34.2012 50.6953 32.5508C50.6953 30.9199 51.6719 29.7969 53.1465 29.7969C54.3574 29.7969 55.5 30.5488 55.5 32.4629V32.834H51.7305C51.7598 33.8398 52.3506 34.416 53.2246 34.416C53.8203 34.416 54.2012 34.1621 54.377 33.8398H55.4316C55.1973 34.6992 54.377 35.2754 53.2148 35.2754ZM51.7402 32.0527H54.4746C54.4746 31.2422 53.957 30.6562 53.1562 30.6562C52.3213 30.6562 51.7793 31.3008 51.7402 32.0527Z" fill="#8571F4"/>
<path d="M50.2656 29.8652L48.3418 35.168H47.2188L45.2949 29.8652H46.418L47.7559 33.9375H47.8047L49.1426 29.8652H50.2656Z" fill="#8571F4"/>
<path d="M40.2363 33.6738C40.2363 32.4629 41.2617 32.1504 42.2188 32.082C42.5703 32.0576 43.3662 32.0137 43.6152 32.0039L43.6055 31.584C43.6055 30.9883 43.2441 30.6367 42.5312 30.6367C41.916 30.6367 41.5449 30.9199 41.4375 31.3105H40.4023C40.5 30.4316 41.3203 29.7969 42.5703 29.7969C43.4102 29.7969 44.6504 30.1094 44.6504 31.6426V35.168H43.6348V34.4453H43.5957C43.3906 34.8457 42.9023 35.2852 42.0234 35.2852C41.0176 35.2852 40.2363 34.709 40.2363 33.6738ZM41.252 33.6836C41.252 34.1914 41.6719 34.4551 42.2578 34.4551C43.1074 34.4551 43.6152 33.8887 43.6152 33.2539V32.7656L42.3652 32.8535C41.6816 32.9023 41.252 33.1562 41.252 33.6836Z" fill="#8571F4"/>
<path d="M36.9062 35.168V29.8652H37.9121V30.7051H37.9707C38.166 30.1387 38.6934 29.7871 39.3184 29.7871C39.4453 29.7871 39.6504 29.7969 39.7578 29.8066V30.8027C39.6699 30.7832 39.4258 30.7441 39.2109 30.7441C38.4883 30.7441 37.9512 31.2422 37.9512 31.9355V35.168H36.9062Z" fill="#8571F4"/>
<path d="M35.8906 29.8652V30.6953H34.8066V33.6055C34.8066 34.2012 35.1094 34.3086 35.4414 34.3184C35.5879 34.3184 35.8223 34.2988 35.9688 34.2891V35.1973C35.8223 35.2168 35.5977 35.2363 35.3145 35.2363C34.4941 35.2363 33.7617 34.7871 33.7715 33.8203V30.6953H32.9902V29.8652H33.7715V28.5957H34.8066V29.8652H35.8906Z" fill="#8571F4"/>
<path d="M52.8537 0C54.0929 0 55.0976 1.00463 55.0976 2.2439V3.37571C54.9006 3.22291 54.6845 3.06768 54.4478 2.9117C53.6651 2.36561 52.6275 2.09272 51.3351 2.0927C50.2975 2.0927 49.287 2.50231 48.3039 3.32148C47.321 4.14063 46.5109 5.27823 45.8738 6.73445C45.2549 8.19075 44.9452 9.82919 44.9452 11.6496C44.9452 13.4881 45.2732 15.172 45.9286 16.7011C46.5839 18.2302 47.4485 19.4406 48.5225 20.3326C49.6147 21.2064 50.7523 21.6435 51.9355 21.6436C53.229 21.6436 54.2816 21.3821 55.0948 20.8618C55.0396 22.052 54.0575 23 52.8537 23H24.2439C23.2608 23 22.4261 22.3675 22.1227 21.4874C22.9669 21.7549 24.066 21.8895 25.4206 21.8896C27.7325 21.8896 29.5439 21.4523 30.8545 20.5786C32.1652 19.7049 32.8206 18.3943 32.8207 16.6468C32.8207 15.0086 32.4386 13.5975 31.6741 12.4143C30.9277 11.2311 30.0626 10.4297 29.0796 10.011C28.1155 9.59264 27.5878 9.36502 27.4964 9.32841C26.5317 8.92797 25.7577 8.50963 25.1752 8.07279C24.5927 7.6359 24.3014 7.02581 24.3014 6.24304C24.3014 5.44212 24.4652 4.93252 24.7928 4.71406C25.1205 4.47741 25.5393 4.35907 26.049 4.35907C26.6861 4.35909 27.3503 4.58664 28.042 5.04166C28.7337 5.49675 29.4438 6.04308 30.1719 6.68021C30.2994 6.77122 30.4269 6.8804 30.5543 7.00781C30.6996 7.11675 30.7906 7.17137 30.8271 7.17161C30.9181 7.17161 30.9819 7.15318 31.0183 7.11683C31.0729 7.08044 31.1276 7.02579 31.1821 6.95303C31.255 6.86201 31.3187 6.77987 31.3733 6.70706C31.5008 6.56142 31.6651 6.33391 31.8653 6.02446C32.0836 5.69692 32.2383 5.46927 32.3293 5.34187C32.3475 5.30547 32.3746 5.25079 32.4109 5.17807C32.4655 5.08705 32.4931 5.0141 32.4931 4.95948C32.493 4.86862 32.4567 4.78677 32.3841 4.71406C31.7652 4.09517 30.8913 3.44879 29.7627 2.7753C28.6523 2.08356 27.2322 1.73772 25.5028 1.73771C24.7929 1.73771 23.9553 1.98358 22.9905 2.47509C22.6432 2.6554 22.313 2.86128 22 3.09304V2.2439C22 1.00463 23.0046 2.25883e-09 24.2439 0H52.8537ZM45.6941 1.68293C44.9113 1.68293 44.1467 1.69211 43.4003 1.71032L38.649 1.7651L32.8333 1.79194C32.6877 1.79194 32.5601 1.78329 32.4509 1.7651C32.3417 1.7469 32.2504 1.73771 32.1775 1.73771C32.0685 1.73774 31.9867 1.76484 31.9321 1.81934C31.8957 1.85574 31.8773 1.94707 31.8773 2.0927L31.8499 2.69312C31.8499 2.98438 31.9229 3.13029 32.0685 3.13029L34.3349 3.0755L34.8263 3.1029C34.8809 3.55796 34.9085 4.23142 34.9085 5.12329C34.9085 5.92414 34.8901 6.56138 34.8537 7.03466C34.7809 7.94484 34.7171 9.30122 34.6625 11.1034C34.6261 12.9055 34.6077 14.5986 34.6077 16.1823C34.6077 17.3655 34.6261 18.1939 34.6625 18.6672C34.6625 18.9221 34.6441 19.2864 34.6077 19.7596C34.5713 20.1234 34.5535 20.369 34.5535 20.4964C34.5535 20.8604 34.6443 21.0426 34.8263 21.0426L36.5191 21.07C39.4135 21.1246 40.9066 21.1522 40.9976 21.1522L42.199 21.179C42.654 21.179 42.9729 21.1244 43.1549 21.0152C43.3367 20.9059 43.4185 20.6691 43.4003 20.3052C43.4003 20.1227 43.3457 19.3037 43.2365 17.8482C43.2183 17.557 43.1637 16.856 43.0727 15.7457C42.9999 14.617 42.9637 13.6881 42.9637 12.96L42.9906 8.15442L43.0454 3.21191H43.1549C43.7373 3.23011 44.2287 3.23011 44.6291 3.21191C45.0477 3.19372 45.3298 3.18453 45.4755 3.18452C45.7121 3.18452 45.8851 3.13911 45.9943 3.04811C46.1035 2.95709 46.1489 2.79336 46.1307 2.55671V2.22911C46.1489 2.06529 46.1311 1.93775 46.0765 1.84673C46.0401 1.75571 45.9125 1.70113 45.6941 1.68293ZM22 11.6315C22.4574 11.9415 22.9785 12.2575 23.564 12.5781C23.8553 12.7238 24.165 12.9059 24.4926 13.1243C26.4767 14.5442 27.469 15.8822 27.469 17.1382C27.4689 17.8663 27.2139 18.3668 26.7042 18.6398C26.1945 18.8947 25.5936 19.0222 24.9018 19.0222C23.8474 19.0222 22.8807 18.7004 22 18.0597V11.6315ZM55.0976 16.7778L54.3657 16.3735C54.2383 16.3007 54.129 16.2645 54.0381 16.2645C53.9653 16.2645 53.8836 16.3099 53.7926 16.4009C53.7199 16.4918 53.6652 16.5556 53.6288 16.5921C53.374 16.8469 53.0735 17.0928 52.7277 17.3294C52.3819 17.5478 52.0451 17.657 51.7175 17.657C51.3534 17.657 50.9162 17.5019 50.4065 17.1925C49.9151 16.883 49.4691 16.3371 49.0687 15.5545C48.6864 14.7535 48.4951 13.6792 48.4951 12.3322C48.4951 10.9488 48.6498 9.8203 48.9592 8.94657C49.2686 8.05459 49.642 7.41694 50.0789 7.03466C50.5339 6.65248 50.9891 6.46164 51.4441 6.46163C51.7354 6.46163 51.9812 6.55242 52.1815 6.73445C52.3999 6.89828 52.7004 7.18954 53.0827 7.60823C53.2464 7.7902 53.3919 7.88154 53.5193 7.8816C53.6467 7.8816 53.7743 7.82695 53.9017 7.7178C54.029 7.59041 54.1837 7.40816 54.3657 7.17161C54.5493 6.92365 54.7933 6.65487 55.0976 6.36521V16.7778Z" fill="url(#paint0_linear_205_77)"/>
<defs>
<linearGradient id="paint0_linear_205_77" x1="23" y1="1" x2="54" y2="1" gradientUnits="userSpaceOnUse">
<stop stop-color="#8571F4"/>
<stop offset="1" stop-color="#4D31E9"/>
</linearGradient>
</defs>
</svg>
