<svg width="34" height="23" viewBox="0 0 34 23" fill="none" xmlns="http://www.w3.org/2000/svg">
<path d="M30.8537 0C32.0929 0 33.0976 1.00463 33.0976 2.2439V3.37571C32.9006 3.22291 32.6845 3.06768 32.4478 2.9117C31.6651 2.36561 30.6275 2.09272 29.3351 2.0927C28.2975 2.0927 27.287 2.50231 26.3039 3.32148C25.321 4.14063 24.5109 5.27823 23.8738 6.73445C23.2549 8.19075 22.9452 9.82919 22.9452 11.6496C22.9452 13.4881 23.2732 15.172 23.9286 16.7011C24.5839 18.2302 25.4485 19.4406 26.5225 20.3326C27.6147 21.2064 28.7523 21.6435 29.9355 21.6436C31.229 21.6436 32.2816 21.3821 33.0948 20.8618C33.0396 22.052 32.0575 23 30.8537 23H2.2439C1.26079 23 0.426086 22.3675 0.122713 21.4874C0.966881 21.7549 2.06601 21.8895 3.42064 21.8896C5.73246 21.8896 7.54387 21.4523 8.85454 20.5786C10.1652 19.7049 10.8206 18.3943 10.8207 16.6468C10.8207 15.0086 10.4386 13.5975 9.67409 12.4143C8.92773 11.2311 8.06259 10.4297 7.07958 10.011C6.11553 9.59264 5.58782 9.36502 5.49636 9.32841C4.53166 8.92797 3.75771 8.50963 3.17521 8.07279C2.59269 7.6359 2.30142 7.02581 2.30142 6.24304C2.30143 5.44212 2.46519 4.93252 2.79283 4.71406C3.1205 4.47741 3.53929 4.35907 4.04899 4.35907C4.68606 4.35909 5.35033 4.58664 6.04199 5.04166C6.73374 5.49675 7.44379 6.04308 8.17195 6.68021C8.29936 6.77122 8.42692 6.8804 8.55433 7.00781C8.69959 7.11675 8.79059 7.17137 8.82715 7.17161C8.91809 7.17161 8.98192 7.15318 9.01834 7.11683C9.07292 7.08044 9.12756 7.02579 9.18214 6.95303C9.25496 6.86201 9.31872 6.77987 9.37333 6.70706C9.50076 6.56142 9.66505 6.33391 9.86528 6.02446C10.0836 5.69692 10.2383 5.46927 10.3293 5.34187C10.3475 5.30547 10.3746 5.25079 10.4109 5.17807C10.4655 5.08705 10.4931 5.0141 10.4931 4.95948C10.493 4.86862 10.4567 4.78677 10.3841 4.71406C9.76518 4.09517 8.89125 3.44879 7.76272 2.7753C6.65229 2.08356 5.23216 1.73772 3.50281 1.73771C2.79286 1.73771 1.95528 1.98358 0.990473 2.47509C0.643228 2.6554 0.31299 2.86128 0 3.09304V2.2439C3.25276e-07 1.00463 1.00463 2.25883e-09 2.2439 0H30.8537ZM23.6941 1.68293C22.9113 1.68293 22.1467 1.69211 21.4003 1.71032L16.649 1.7651L10.8333 1.79194C10.6877 1.79194 10.5601 1.78329 10.4509 1.7651C10.3417 1.7469 10.2504 1.73771 10.1775 1.73771C10.0685 1.73774 9.9867 1.76484 9.93212 1.81934C9.89571 1.85574 9.87733 1.94707 9.87733 2.0927L9.84994 2.69312C9.84994 2.98438 9.9229 3.13029 10.0685 3.13029L12.3349 3.0755L12.8263 3.1029C12.8809 3.55796 12.9085 4.23142 12.9085 5.12329C12.9085 5.92414 12.8901 6.56138 12.8537 7.03466C12.7809 7.94484 12.7171 9.30122 12.6625 11.1034C12.6261 12.9055 12.6077 14.5986 12.6077 16.1823C12.6077 17.3655 12.6261 18.1939 12.6625 18.6672C12.6625 18.9221 12.6441 19.2864 12.6077 19.7596C12.5713 20.1234 12.5535 20.369 12.5535 20.4964C12.5535 20.8604 12.6443 21.0426 12.8263 21.0426L14.5191 21.07C17.4135 21.1246 18.9066 21.1522 18.9976 21.1522L20.199 21.179C20.654 21.179 20.9729 21.1244 21.1549 21.0152C21.3367 20.9059 21.4185 20.6691 21.4003 20.3052C21.4003 20.1227 21.3457 19.3037 21.2365 17.8482C21.2183 17.557 21.1637 16.856 21.0727 15.7457C20.9999 14.617 20.9637 13.6881 20.9637 12.96L20.9906 8.15442L21.0454 3.21191H21.1549C21.7373 3.23011 22.2287 3.23011 22.6291 3.21191C23.0477 3.19372 23.3298 3.18453 23.4755 3.18452C23.7121 3.18452 23.8851 3.13911 23.9943 3.04811C24.1035 2.95709 24.1489 2.79336 24.1307 2.55671V2.22911C24.1489 2.06529 24.1311 1.93775 24.0765 1.84673C24.0401 1.75571 23.9125 1.70113 23.6941 1.68293ZM0 11.6315C0.457447 11.9415 0.978518 12.2575 1.56405 12.5781C1.8553 12.7238 2.16496 12.9059 2.49262 13.1243C4.4767 14.5442 5.46896 15.8822 5.46896 17.1382C5.46893 17.8663 5.21386 18.3668 4.7042 18.6398C4.19449 18.8947 3.59359 19.0222 2.90184 19.0222C1.84741 19.0222 0.880742 18.7004 0 18.0597V11.6315ZM33.0976 16.7778L32.3657 16.3735C32.2383 16.3007 32.129 16.2645 32.0381 16.2645C31.9653 16.2645 31.8836 16.3099 31.7926 16.4009C31.7199 16.4918 31.6652 16.5556 31.6288 16.5921C31.374 16.8469 31.0735 17.0928 30.7277 17.3294C30.3819 17.5478 30.0451 17.657 29.7175 17.657C29.3534 17.657 28.9162 17.5019 28.4065 17.1925C27.9151 16.883 27.4691 16.3371 27.0687 15.5545C26.6864 14.7535 26.4951 13.6792 26.4951 12.3322C26.4951 10.9488 26.6498 9.8203 26.9592 8.94657C27.2686 8.05459 27.642 7.41694 28.0789 7.03466C28.5339 6.65248 28.9891 6.46164 29.4441 6.46163C29.7354 6.46163 29.9812 6.55242 30.1815 6.73445C30.3999 6.89828 30.7004 7.18954 31.0827 7.60823C31.2464 7.7902 31.3919 7.88154 31.5193 7.8816C31.6467 7.8816 31.7743 7.82695 31.9017 7.7178C32.029 7.59041 32.1837 7.40816 32.3657 7.17161C32.5493 6.92365 32.7933 6.65487 33.0976 6.36521V16.7778Z" fill="#D8D7DE"/>
</svg>
